<svg class="svg-icon" style="width: 1em; height: 1em;vertical-align: middle;fill: currentColor;overflow: hidden;" viewBox="0 0 1024 1024" version="1.1" xmlns="http://www.w3.org/2000/svg"><path d="M273.92 464.384c-16.384-7.68-40.448-15.872-67.584-23.04-27.136-7.168-52.224-11.776-70.144-13.312-12.288-1.024-18.432-1.536-18.944 0-0.512 1.024 5.12 4.096 16.384 9.216 16.384 7.68 40.448 15.872 67.584 23.04 27.136 7.168 52.224 11.776 70.144 13.312 12.288 1.024 18.432 1.536 18.944 0 0-1.024-5.12-4.096-16.384-9.216z m554.496 134.144v-37.888h129.536v346.112h-129.536v-54.272L662.016 788.48l-386.048 47.616L61.44 725.504l6.656-40.448-28.672-23.552 4.096-43.008-4.096-18.432 16.896-64L317.44 619.52l204.288-55.296-0.512-15.872H360.96L393.216 471.04l289.792-46.08 131.072 168.96 14.336 4.608zM210.432 425.472c28.672 7.68 54.272 16.384 72.704 25.088 15.872 7.168 27.136 14.848 31.744 22.528 2.56 4.096 3.072 7.168 2.048 10.752-4.096 15.872-8.704 32.768-12.8 48.64-2.56 5.12-4.096 7.168-8.192 8.704-34.304 15.872-195.584-24.064-217.6-57.856-2.56-4.096-3.584-6.656-2.56-11.264 4.096-15.872 8.704-32.768 12.8-48.64 1.024-3.584 2.56-5.632 6.656-8.192 7.68-4.096 21.504-5.632 38.912-4.096 20.992 2.048 47.616 6.656 76.288 14.336z m169.472-40.448c-5.632-17.408-16.384-40.448-29.696-65.024-13.312-24.576-27.136-46.08-38.4-60.416-7.68-9.728-11.776-14.336-12.8-13.824-1.024 0.512 0.512 6.144 4.608 18.432 5.632 17.408 16.384 40.448 29.696 65.024 13.312 24.576 27.136 46.08 38.4 60.416 7.68 9.728 11.776 14.336 12.8 13.824 1.024-0.512-1.024-6.144-4.608-18.432z m-15.36-72.704c14.336 26.112 25.088 50.688 31.744 70.144 5.632 16.384 7.68 29.696 5.12 38.4-1.024 4.608-3.072 7.168-6.144 9.216-14.336 7.68-29.696 16.384-44.544 24.064-5.632 2.048-7.68 2.048-11.776 0-34.816-14.336-116.224-158.72-107.008-197.632 1.024-5.12 2.048-7.168 6.656-9.216 14.336-7.68 29.696-16.384 44.544-24.064 3.584-1.536 6.144-2.048 10.752-0.512 8.704 2.56 18.944 11.776 29.696 25.6 12.288 15.36 27.136 37.888 40.96 64z m103.936-131.072c-8.704 13.824-18.432 34.304-27.648 57.344-9.216 23.552-15.872 44.544-19.456 60.416-2.56 10.752-3.072 16.384-2.048 16.384 1.024 0.512 4.096-4.096 9.728-13.312 8.704-13.824 18.432-34.304 27.648-57.344C465.92 221.696 472.576 200.192 476.16 184.32c2.56-10.752 3.072-16.384 2.048-16.384-1.024-0.512-4.096 3.584-9.728 13.312z m-41.472 52.224c-9.728 24.576-16.896 47.616-20.48 65.024-3.072 15.36-3.584 27.648-0.512 34.816 1.536 3.584 3.072 5.632 6.656 6.656 13.824 5.632 28.16 11.264 41.984 16.896 4.096 1.536 6.144 1.024 10.24-1.024 31.744-15.872 84.48-154.112 74.752-185.856-1.024-3.584-2.56-5.12-6.656-8.192-13.824-5.632-28.16-11.264-41.984-16.896-3.072-1.536-6.144-1.024-9.728 0.512-7.168 3.584-15.36 12.288-23.552 25.6-10.24 15.872-20.992 37.888-30.72 62.464z" fill="#ffffff" /></svg>