<?xml version="1.0" encoding="utf-8"?><svg version="1.1" id="Layer_1" xmlns="http://www.w3.org/2000/svg" xmlns:xlink="http://www.w3.org/1999/xlink" x="0px" y="0px" viewBox="0 0 122.88 96.2" style="enable-background:new 0 0 122.88 96.2" xml:space="preserve"><style type="text/css">.st0{fill-rule:evenodd;clip-rule:evenodd;}</style><g><path class="st0" fill="#FFFFFF" d="M0,42.92h24.83V87.1H0V42.92L0,42.92z M85.36,20.49c9.01,0,16.32,7.3,16.32,16.32 c0,9.01-7.3,16.32-16.32,16.32c-9.01,0-16.32-7.3-16.32-16.32C69.04,27.8,76.34,20.49,85.36,20.49L85.36,20.49z M56.72,0 C64.49,0,70.8,6.3,70.8,14.08c0,7.77-6.3,14.08-14.08,14.08c-7.77,0-14.08-6.3-14.08-14.08C42.64,6.31,48.94,0,56.72,0L56.72,0z M58.15,17.07c0-0.46-0.11-0.81-0.34-1.07c-0.23-0.26-0.62-0.5-1.18-0.73c-0.56-0.23-1.08-0.46-1.55-0.69 c-0.47-0.24-0.89-0.51-1.23-0.82c-0.35-0.31-0.61-0.67-0.79-1.07c-0.19-0.41-0.27-0.9-0.27-1.48c0-0.97,0.33-1.77,0.98-2.39 c0.65-0.62,1.52-1,2.61-1.1v-1.3h1.37v1.33c1.05,0.15,1.88,0.58,2.48,1.29c0.6,0.71,0.9,1.61,0.9,2.69H58.2 c0-0.6-0.12-1.06-0.35-1.38c-0.23-0.32-0.56-0.48-0.98-0.48c-0.38,0-0.68,0.12-0.88,0.35c-0.21,0.24-0.31,0.57-0.31,0.98 c0,0.42,0.12,0.76,0.36,1.01c0.25,0.25,0.63,0.49,1.16,0.72c0.53,0.23,1.04,0.46,1.51,0.7c0.47,0.25,0.88,0.52,1.22,0.83 c0.35,0.31,0.62,0.68,0.81,1.09c0.19,0.41,0.3,0.9,0.3,1.49c0,0.98-0.31,1.78-0.94,2.4c-0.63,0.62-1.47,0.98-2.54,1.08v1.22H56.2 v-1.22c-1.25-0.14-2.21-0.56-2.88-1.28c-0.67-0.73-1.01-1.68-1.01-2.87h2.91c0,0.66,0.14,1.15,0.43,1.5 c0.29,0.34,0.7,0.52,1.23,0.52c0.39,0,0.69-0.12,0.92-0.35C58.02,17.8,58.14,17.48,58.15,17.07L58.15,17.07L58.15,17.07z M87.01,40.27c0-0.53-0.13-0.94-0.39-1.24c-0.26-0.3-0.71-0.58-1.37-0.85c-0.65-0.26-1.25-0.54-1.8-0.8 c-0.55-0.27-1.03-0.59-1.43-0.95c-0.4-0.36-0.7-0.77-0.92-1.24c-0.22-0.47-0.31-1.04-0.31-1.71c0-1.13,0.38-2.05,1.14-2.77 c0.75-0.72,1.76-1.15,3.02-1.27v-1.51h1.59v1.55c1.21,0.18,2.17,0.68,2.87,1.5c0.7,0.82,1.05,1.86,1.05,3.12h-3.38 c0-0.7-0.14-1.22-0.4-1.6c-0.26-0.37-0.65-0.56-1.14-0.56c-0.44,0-0.78,0.14-1.02,0.41c-0.24,0.27-0.36,0.66-0.36,1.14 c0,0.49,0.14,0.88,0.42,1.17c0.28,0.29,0.72,0.57,1.34,0.83c0.62,0.26,1.2,0.54,1.75,0.81c0.55,0.28,1.02,0.61,1.42,0.96 c0.4,0.36,0.71,0.78,0.94,1.26c0.23,0.48,0.34,1.05,0.34,1.72c0,1.14-0.36,2.07-1.09,2.78c-0.72,0.71-1.7,1.14-2.95,1.25v1.41 h-1.59v-1.42c-1.45-0.16-2.56-0.65-3.34-1.49c-0.77-0.84-1.16-1.95-1.16-3.33h3.37c0,0.76,0.17,1.33,0.5,1.73 c0.33,0.39,0.81,0.6,1.43,0.6c0.45,0,0.8-0.14,1.07-0.4C86.87,41.11,87,40.74,87.01,40.27L87.01,40.27L87.01,40.27z M85.36,23.7 c7.23,0,13.1,5.86,13.1,13.1c0,7.23-5.86,13.1-13.1,13.1c-7.23,0-13.1-5.86-13.1-13.1C72.26,29.56,78.13,23.7,85.36,23.7 L85.36,23.7z M29.83,83.39V46.47h16.61c7.04,1.26,14.08,5.08,21.12,9.51h12.9c5.84,0.35,8.9,6.27,3.22,10.16 c-4.52,3.32-10.49,3.13-16.61,2.58c-4.22-0.21-4.4,5.46,0,5.48c1.53,0.12,3.19-0.24,4.64-0.24c7.64-0.01,13.92-1.47,17.77-7.5 l1.93-4.51l19.19-9.51c9.6-3.16,16.42,6.88,9.35,13.87c-13.9,10.11-28.15,18.43-42.73,25.15c-10.59,6.44-21.18,6.22-31.76,0 L29.83,83.39L29.83,83.39z"/></g></svg>