<svg id="e45NcDGWRrq1" xmlns="http://www.w3.org/2000/svg" xmlns:xlink="http://www.w3.org/1999/xlink" viewBox="0 0 1024 1024" shape-rendering="geometricPrecision" text-rendering="geometricPrecision"><path d="M608.905562,303.70193c-109.012809,0-197.379393,88.36556-197.379393,197.371206c0,109.0036,88.366583,197.371206,197.379393,197.371206c109.006669,0,197.378369-88.36556,197.378369-197.371206c0-109.002576-88.371699-197.371206-197.378369-197.371206Zm0,363.775121c-91.9062,0-166.410054-74.501808-166.410054-166.402891c0-91.898013,74.502831-166.401868,166.410054-166.401868c91.9062,0,166.408007,74.503854,166.408007,166.401868c0,91.901083-74.504877,166.402891-166.408007,166.402891Z" fill="#fff"/><path d="M608.905562,355.316471c-80.504522,0-145.761782,65.258283-145.761782,145.757688c0,80.500429,65.25726,145.756665,145.761782,145.756665c80.502475,0,145.763828-65.25726,145.763828-145.756665s-65.261353-145.757688-145.763828-145.757688ZM656.343991,575.22395c-8.04114,6.443759-18.59552,10.501168-31.346939,12.498662v24.023136h-39.783075v-24.043602c-13.624299-1.793856-26.272363-5.189186-37.734416-10.539031v-36.514635c21.199835,9.323343,38.966477,13.9712,53.30095,13.9712c16.774035,0,25.161053-4.057409,25.161053-12.192693c0-3.136433-1.562589-6.100952-4.650927-8.892531-3.095501-2.780323-13.499455-7.645121-31.19242-14.570857-17.699104-6.913457-29.800723-14.510482-36.326347-22.785959-6.52153-8.284687-9.784854-17.492396-9.784854-27.6395c0-15.050788,6.266727-27.288506,18.795065-36.726459c6.408967-4.845355,13.914918-8.400321,22.428825-10.765181v-30.641881h39.786145v27.90556c14.696724,1.399883,28.250414,5.195326,40.60172,11.559267v36.866652c-19.787672-12.114922-38.139645-18.169825-55.035454-18.169825-12.455683,0-18.691711,4.248767-18.691711,12.753465c0,2.207271,1.307785,4.39203,3.937682,6.545066c2.625804,2.165316,12.675694,6.724145,30.143531,13.678534c17.469883,6.954389,29.80584,14.97711,37.032428,24.069185c7.224542,9.095145,10.838859,19.075451,10.838859,29.919427.000001,17.143448-5.829774,30.371727-17.480115,39.692Z" fill="#fff"/><path d="M506.231111,65.009619c-246.822478,0-446.911586,200.090131-446.911586,446.912609c0,246.823502,200.090131,446.912609,446.911586,446.912609c246.823502,0,446.912609-200.089108,446.912609-446.912609.001024-246.823501-200.089107-446.912609-446.912609-446.912609ZM608.905562,719.089545c-54.336536,0-104.024192-19.878746-142.203746-52.757574h-275.983635c-5.702885,0-10.324136-4.622274-10.324136-10.32209c0-5.701862,4.621251-10.324136,10.324136-10.324136h255.04679c-11.212366-12.640901-20.98187-26.585495-29.042453-41.59228h-183.862541c-5.699816,0-10.321066-4.622274-10.321066-10.321066c0-5.702885,4.621251-10.324136,10.321066-10.324136h174.137039c-5.315052-13.016455-9.4093-26.663266-12.136412-40.795125l-190.410677-.000001c-5.698792,0-10.320043-4.622274-10.320043-10.32516c0-5.698792,4.621251-10.320043,10.320043-10.320043h187.43695c-.657986-6.890944-1.004887-13.872962-1.004887-20.934798c0-6.922666.337691-13.763468.966001-20.522406l-160.968112.000001c-5.701862,0-10.323113-4.621251-10.323113-10.324136c0-5.699816,4.621251-10.320043,10.323113-10.320043h163.90193c2.739391-14.334473,6.879688-28.167526,12.275581-41.35385l-154.375972-.000001c-5.701862,0-10.324136-4.621251-10.324136-10.324136c0-5.699816,4.622274-10.321066,10.324136-10.321066h164.116825c36.797068-68.37118,109.020996-114.850771,192.107319-114.850771c120.41244,0,218.027665,97.610108,218.027665,218.016409c0,120.40937-97.615225,218.016408-218.027665,218.016408Z" transform="translate(5.768369 0.077772)" fill="#fff"/></svg>