<svg id="eiSED1IspXV1" xmlns="http://www.w3.org/2000/svg" xmlns:xlink="http://www.w3.org/1999/xlink" viewBox="0 0 410 420" shape-rendering="geometricPrecision" text-rendering="geometricPrecision"><g transform="matrix(.106495 0 0-.154147-1.118198 431.6116)" fill="#ffffff"><path d="M1852,2780c-51-23-99-73-107-111-4-15-12-32-18-37-10-8-186-37-587-98-52-8-189-30-305-48l-210-34-35,38c-46,50-93,73-155,73-173,2-264-209-144-335c21-23,39-46,39-52-1-6-29-126-64-266l-63-254-44-16c-65-23-93-45-123-99-34-64-34-118,0-182c30-54,58-76,123-99c50-18,35,22,126-350l47-195-39-41c-70-73-77-167-19-254c71-107,240-110,320-5c18,23,33,34,44,31c18-5,258-43,772-121c162-25,301-49,309-53c8-5,19-22,25-38c20-52,47-83,99-109c28-14,67-25,86-25c75,1,173,69,186,131c9,38,19,44,110,58c44,6,121,18,170,26c50,8,236,37,415,65c179,27,348,54,375,59c50,10,50,10,85-29c46-51,91-72,155-72c71-1,130,32,168,94c53,85,36,198-39,257-13,10-24,25-24,32c1,8,29,129,64,269l63,254l44,16c24,8,56,23,70,33c38,26,79,107,79,156c0,81-63,164-146,191l-47,16-63,254c-35,140-63,260-64,266c0,6,18,29,39,52c120,126,30,335-144,335-62,0-109-22-155-73-35-39-35-39-85-29-27,5-196,32-375,59-179,28-365,57-415,65-49,8-126,19-170,26-90,13-101,19-110,58-13,62-111,131-185,131-19,0-54-9-78-20Zm-63-320c28-27,57-50,66-50c14,0,15-21,13-172l-3-173-486-5c-395-4-489-8-503-19-9-8-19-12-21-10-53,47-235,236-235,245c0,7,4,23,9,36c8,21,21,25,117,41c131,21,626,99,814,127c74,12,142,23,150,24c8,2,18,4,22,5c4,0,30-21,57-49Zm422,36c99-15,233-36,384-60c50-8,153-24,230-36c424-64,415-62,415-120c0-20-26-52-113-138-63-62-116-112-119-112s-22,7-41,15c-31,13-111,15-507,15h-470v173v172l36,20c20,11,48,34,61,52c14,18,26,33,28,33c1,0,44-6,96-14ZM652,2063l117-118-14-40c-10-29-14-90-15-217v-178h-169c-164,0-170,1-176,21-4,12-23,39-43,61l-35,39l63,257c34,141,67,262,72,269c9,11,32,18,68,22c8,0,68-52,132-116Zm2731,103l32-13l64-261l63-261-41-47c-23-26-41-53-41-60c0-11-33-14-170-14h-170v175c0,105-5,193-12,220l-12,45l114,115c63,63,121,115,128,115s27-6,45-14ZM1394,1720c61-19,150-114,170-180c34-115,11-206-72-290-71-70-132-90-273-90-146,0-139-15-139,290c0,312-10,294,160,287c63-2,133-10,154-17Zm1213,4c63-22,106-56,140-112c26-44,28-54,28-162s-2-118-28-162c-100-166-334-166-434,0-26,44-28,54-28,162s2,118,28,162c64,106,180,150,294,112Zm-595-20c48-16,109-69,136-119c14-24,18-66,20-203c3-154,2-176-14-193-42-46-104-12-104,58v43h-119-120l-3-46c-2-38-9-51-30-67l-28-21-27,21-28,20-3,157c-3,191,4,223,66,288c72,75,157,96,254,62ZM740,1215c0-105,5-193,12-220l12-46L648,833L532,717l-42,14-43,14-65,262-64,262l41,47c22,26,41,53,41,60c0,11,33,14,170,14h170v-175Zm2720,161c0-7,19-34,41-60l41-47-64-262-64-262-43-14-43-14-116,116-116,116l12,51c7,29,12,126,12,221v169h170c137,0,170-3,170-14ZM893,855c31-13,111-15,507-15h470v-174-174l-30-12c-17-7-45-30-63-51l-32-38-95,14c-52,7-153,23-223,34-71,12-156,25-190,30-89,13-386,59-497,77-101,16-120,28-120,73c0,19,29,54,113,138c62,62,116,113,119,113s22-7,41-15ZM3124,751c117-118,119-120,110-152-9-33-10-33-109-50-117-19-249-40-470-75-88-13-205-31-260-40-55-8-140-22-190-29l-90-14-32,38c-18,21-46,44-63,51l-30,13l2,171l3,171l487,5c371,4,490,8,500,18c6,6,15,12,18,12s59-54,124-119Z"/><path d="M1204,1597c-2-7-3-78-2-157l3-145l62-3c78-4,125,17,160,69c52,78,22,193-60,232-43,21-155,23-163,4Z"/><path d="M2469,1595c-47-26-63-62-63-145c0-84,16-120,65-146c57-29,129-11,165,43c26,40,27,167,0,206-36,54-111,72-167,42Z"/><path d="M1873,1584c-40-20-65-72-61-127l3-42h115h115v58c0,50-4,61-31,88-38,38-94,47-141,23Z"/></g></svg>