<svg id="ezxs0PGMk5f1" xmlns="http://www.w3.org/2000/svg" xmlns:xlink="http://www.w3.org/1999/xlink" viewBox="0 0 858 980" shape-rendering="geometricPrecision" text-rendering="geometricPrecision"><g fill="#ffffff"><g transform="matrix(.1 0 0-.1 0 980)"><path d="M10,4900L10,0h2342h2341L4524,173c-190,192-272,291-379,452-159,239-313,584-371,828l-18,77h-1263-1263v305v305h1223h1223l12,163c7,89,25,228,41,309c27,132,89,385,106,430c7,17-61,18-1296,20l-1304,3-3,301-2,302l1462,7l1463,8l45,66c169,248,528,574,855,776l97,60-1958,5-1959,5v305v305l2448,3l2447,2v-161-162l158,7c270,12,611-25,882-96c168-44,166-44,175-16c4,12,10,596,12,1297l5,1274L6138,8577L4915,9800h-2452-2453v-4900ZM5830,8255l905-905h-913-912v905c0,498,3,905,8,905c4,0,414-407,912-905ZM3680,7965v-305h-1225-1225v305v305h1225h1225v-305ZM6130,6430v-310l-2447,2-2448,3-3,295c-1,162,0,300,3,307c3,10,491,13,2450,13h2445v-310Z"/></g><path d="M430.03792,765.3141c0-117.76428,95.46681-213.2311,213.2311-213.2311s213.2311,95.46681,213.2311,213.2311-95.46681,213.2311-213.2311,213.2311-213.2311-95.46681-213.2311-213.2311Zm237.48803,42.70781v-209.63728h-60.51385v209.63728h60.51385ZM636.26902,934.32102c24.46886,0,44.30479-19.78842,44.30479-44.19867s-19.83593-44.19867-44.30479-44.19867-44.30479,19.78842-44.30479,44.19867s19.83593,44.19867,44.30479,44.19867Z" stroke-width="0"/></g></svg>