<?xml version="1.0" standalone="no"?>
<!DOCTYPE svg PUBLIC "-//W3C//DTD SVG 20010904//EN"
 "http://www.w3.org/TR/2001/REC-SVG-20010904/DTD/svg10.dtd">
<svg version="1.0" xmlns="http://www.w3.org/2000/svg"
 width="512.000000pt" height="512.000000pt" viewBox="0 0 512.000000 512.000000"
 preserveAspectRatio="xMidYMid meet">

<g transform="translate(0.000000,512.000000) scale(0.100000,-0.100000)"
fill="#ffffff" stroke="none">
<path d="M1275 4405 l-1270 -512 -3 -322 -2 -321 2560 0 2560 0 -2 322 -3 321
-1274 514 c-701 282 -1280 513 -1285 512 -6 -1 -582 -232 -1281 -514z m1665
-575 l0 -160 -380 0 -380 0 0 160 0 160 380 0 380 0 0 -160z"/>
<path d="M460 2020 l0 -910 280 0 280 0 0 910 0 910 -280 0 -280 0 0 -910z"/>
<path d="M1340 2020 l0 -910 280 0 280 0 0 910 0 910 -280 0 -280 0 0 -910z"/>
<path d="M3220 2020 l0 -910 280 0 280 0 0 910 0 910 -280 0 -280 0 0 -910z"/>
<path d="M4100 2020 l0 -910 280 0 280 0 0 910 0 910 -280 0 -280 0 0 -910z"/>
<path d="M2380 2713 l0 -88 -55 -28 c-66 -35 -134 -105 -171 -178 -23 -45 -28
-70 -32 -149 -5 -122 18 -190 91 -267 63 -67 121 -95 277 -133 151 -38 160
-43 160 -79 0 -43 -49 -81 -103 -81 -47 0 -107 31 -107 55 0 13 -24 15 -161
15 l-162 0 5 -48 c10 -107 90 -221 196 -282 l61 -35 1 -87 0 -88 160 0 160 0
0 88 0 87 50 24 c224 106 291 418 129 595 -64 70 -135 105 -289 141 -63 15
-123 31 -132 36 -29 15 -24 73 8 98 49 39 163 20 179 -29 6 -19 15 -20 166
-20 l159 0 0 23 c0 41 -31 131 -62 179 -36 58 -82 99 -154 139 l-54 31 0 84 0
84 -160 0 -160 0 0 -87z"/>
<path d="M0 495 l0 -295 2560 0 2560 0 0 295 0 295 -2560 0 -2560 0 0 -295z"/>
</g>
</svg>
