<?xml version="1.0" standalone="no"?>
<!DOCTYPE svg PUBLIC "-//W3C//DTD SVG 20010904//EN"
 "http://www.w3.org/TR/2001/REC-SVG-20010904/DTD/svg10.dtd">
<svg version="1.0" xmlns="http://www.w3.org/2000/svg"
 width="512.000000pt" height="512.000000pt" viewBox="0 0 512.000000 512.000000"
 preserveAspectRatio="xMidYMid meet">

<g transform="translate(0.000000,512.000000) scale(0.100000,-0.100000)"
fill="#ffffff" stroke="none">
<path d="M2259 4500 c-98 -17 -178 -82 -225 -184 -22 -48 -28 -80 -33 -165
l-6 -106 -382 -3 -383 -2 0 -1585 0 -1585 1330 0 1330 0 0 1585 0 1585 -329 0
-328 0 -7 85 c-8 115 -36 183 -103 255 -63 68 -130 104 -224 119 -73 12 -570
13 -640 1z m628 -292 c23 -34 28 -53 28 -102 l0 -61 -305 0 -305 0 -3 103 -3
102 281 0 280 0 27 -42z m-104 -866 c207 -75 307 -210 307 -418 0 -151 -51
-242 -228 -409 -113 -107 -149 -166 -159 -259 l-6 -56 -164 0 -164 0 6 83 c14
176 46 240 190 382 117 115 139 153 137 242 -1 114 -44 158 -153 158 -61 0
-71 -3 -99 -30 -18 -17 -35 -48 -42 -72 l-10 -43 -191 0 -190 0 6 63 c15 181
150 329 340 372 96 22 344 14 420 -13z m-148 -1311 c46 -20 102 -79 111 -117
4 -14 4 -49 2 -79 -8 -101 -90 -167 -208 -167 -118 0 -200 66 -208 167 -6 71
2 97 41 141 42 49 99 74 167 74 32 0 72 -8 95 -19z"/>
<path d="M581 4024 c-185 -50 -360 -217 -435 -416 -46 -121 -47 -161 -44
-1223 3 -941 4 -1003 22 -1055 51 -151 147 -280 270 -360 103 -68 195 -92 374
-98 l152 -4 0 1586 0 1586 -142 -1 c-91 0 -162 -6 -197 -15z"/>
<path d="M4200 2455 l0 -1585 143 0 c234 0 352 39 475 155 78 74 132 159 170
270 l27 80 3 1010 c2 719 0 1033 -8 1090 -30 209 -145 394 -305 490 -103 62
-165 75 -346 75 l-159 0 0 -1585z"/>
</g>
</svg>
